<?xml version="1.0" encoding="utf-8"?>
<!-- Generator: Adobe Illustrator 23.0.3, SVG Export Plug-In . SVG Version: 6.00 Build 0)  -->
<svg version="1.1" id="infoIcon_copy" xmlns="http://www.w3.org/2000/svg" xmlns:xlink="http://www.w3.org/1999/xlink" x="0px"
	 y="0px" viewBox="0 0 382 384" style="enable-background:new 0 0 382 384;" xml:space="preserve">
<style type="text/css">
	.st0{opacity:0.4;fill:#FFFFFF;}
</style>
<path class="st0" d="M186.5,45C99.5,45,29,115.5,29,202.5S99.5,360,186.5,360S344,289.5,344,202.5S273.5,45,186.5,45z M221.9,250.5
	c-9.6,20.2-31.7,33.6-50.6,33.6c-19.5,0-28.2-11.2-28.2-27.2c0-6.1,1.3-12.8,3.8-21.1c8-22.4,28.5-59.5,40.3-76.2
	c4.8-6.4,8.6-7,12.8-2.2c6.1,6.4,8.6,20.2,0.3,36.2c-6.1,13.8-20.8,37.8-26.2,50.6c-2.9,7.4-4.5,14.1-4.5,19.2s1.3,8,4.8,8
	c12.8,0,29.4-21.4,39.4-43.2c2.6-5.8,6.7-5.1,9.6,0.6C226.3,234.2,226,242.2,221.9,250.5z M217.1,157.7c-10.2,0-18.9-9.6-18.9-19.5
	c0-9,6.7-17.3,14.1-17.3c9,0,17.6,11.5,17.6,20.8C229.9,150.3,225.1,157.7,217.1,157.7z"/>
</svg>
