<svg xmlns="http://www.w3.org/2000/svg" viewBox="0 0 297.66 615.38"><defs><style>.cls-1{fill:#f8ceba;}.cls-2{fill:#f3baa1;}.cls-3{fill:#f3a891;}.cls-4{fill:#3d2417;}.cls-14,.cls-5{fill:#fff;}.cls-6{fill:#eb5e46;}.cls-7{fill:#66493e;}.cls-8{fill:#766c6b;}.cls-10,.cls-21,.cls-9{fill:none;stroke-linecap:round;}.cls-10,.cls-9{stroke:#766c6b;}.cls-10,.cls-14,.cls-21,.cls-9{stroke-miterlimit:10;}.cls-10{stroke-width:1.5px;}.cls-11{fill:#4a4948;}.cls-12{fill:#32313c;}.cls-13{fill:#32303b;}.cls-14,.cls-21{stroke:#000;}.cls-14{stroke-width:0.5px;}.cls-15{fill:#962a1b;}.cls-16{fill:#e7e8e9;}.cls-17{fill:#8d8f91;}.cls-18{fill:#96291b;}.cls-19{fill:#313131;}.cls-20{fill:#ecebec;}.cls-21{stroke-width:0.25px;}</style></defs><title>michael</title><g id="Ebene_2" data-name="Ebene 2"><g id="HR_Team"><g id="Michael"><g id="Gesicht"><g id="Hals"><polygon class="cls-1" points="175.19 155.93 168.83 153 168.83 132.78 128 132.78 128 153 121.61 155.76 123.31 213.12 128 213.12 128 221.91 168.83 221.91 168.83 213.12 173.49 213.12 175.19 155.93"/><polygon class="cls-2" points="168.82 134.83 168.82 151.28 127.99 142.71 127.99 134.83 168.82 134.83"/></g><g id="Gesicht-2" data-name="Gesicht"><path class="cls-1" d="M193,75.2l1.38-18c0-23.5-22.46-42.54-45.94-42.54s-45.93,19-45.93,42.54l1.38,18A8.32,8.32,0,0,0,100.36,77a8.46,8.46,0,0,0-3,6.48v8.85a8.5,8.5,0,0,0,8.46,8.5C105.82,123,132.48,144,148.4,144S191,123,191,100.78a8.5,8.5,0,0,0,8.45-8.5V83.43A8.49,8.49,0,0,0,193,75.2Z"/><path class="cls-2" d="M193,75.2l1.38-18c0-23.5-22.46-42.54-45.94-42.54V78.5c-6.21,13.2-10.21,32.32-10.21,32.32H148.4V144c15.94,0,42.59-21,42.59-43.22a8.5,8.5,0,0,0,8.45-8.5V83.43A8.49,8.49,0,0,0,193,75.2Z"/></g><g id="Augen"><path class="cls-3" d="M135.55,83.4a6.72,6.72,0,1,1-7-6.48A6.73,6.73,0,0,1,135.55,83.4Z"/><path class="cls-4" d="M135.55,81.7a6.72,6.72,0,1,1-7-6.48A6.73,6.73,0,0,1,135.55,81.7Z"/><path class="cls-5" d="M132.79,83.18a1.68,1.68,0,1,1-1.74-1.62A1.68,1.68,0,0,1,132.79,83.18Z"/><path class="cls-3" d="M174.68,83.4a6.72,6.72,0,1,1-7-6.48A6.72,6.72,0,0,1,174.68,83.4Z"/><path class="cls-4" d="M174.68,81.7a6.72,6.72,0,1,1-7-6.48A6.72,6.72,0,0,1,174.68,81.7Z"/><circle class="cls-5" cx="170.24" cy="83.24" r="1.68" transform="translate(21.01 200.03) rotate(-64.1)"/><g id="Augenbrauen"><path class="cls-4" d="M137.07,73.92c-1.53-2.74-5-4-8.51-4a9.53,9.53,0,0,0-9,4.78s-.32,1-.08,1.42,1.1.2,1.15.08a8,8,0,0,1,7.68-4.42c2.86,0,6.06.78,7.27,3a.85.85,0,0,0,1.16.33A.84.84,0,0,0,137.07,73.92Z"/><path class="cls-4" d="M159.68,74c1.51-2.75,5-4,8.48-4.06a9.55,9.55,0,0,1,9,4.72,2.2,2.2,0,0,1,.09,1.42c-.28.43-1.1.2-1.15.08a7.94,7.94,0,0,0-7.71-4.35c-2.86,0-6.05.82-7.25,3a.85.85,0,0,1-1.5-.82Z"/></g></g><g id="Mund"><path class="cls-6" d="M159.41,123.59c0,3.83-5,6.93-11.25,6.93s-11.25-3.1-11.25-6.92Z"/><path class="cls-6" d="M159.41,123.61c0-.53-5-1-11.25-1s-11.25.42-11.25.94Z"/><path class="cls-5" d="M138.78,123.61h18.75a0,0,0,0,1,0,0V125a1,1,0,0,1-1,1H139.78a1,1,0,0,1-1-1v-1.42A0,0,0,0,1,138.78,123.61Z"/></g><g id="Bart"><path class="cls-7" d="M166.55,120.86c-5.49-5.73-16.89-6.34-18.17-6.4h-.24c-1.29.06-12.68.67-18.17,6.4a3,3,0,0,0-.85,2.15,92.41,92.41,0,0,0,1.52,15.74,3,3,0,0,0,.94,1.28c.25.21,7.93,5.07,16.67,5.07s16.43-4.86,16.68-5.07a3,3,0,0,0,.95-1.28A93.58,93.58,0,0,0,167.4,123,3.12,3.12,0,0,0,166.55,120.86Zm-6.1,14.85a36.39,36.39,0,0,1-8.37,2.84v-4.11a3.83,3.83,0,0,0-7.66,0v4.11a36.1,36.1,0,0,1-8.36-2.84c-.63-1.85-.5-6.48-.77-11.4,3.55-2.69,10.31-3.59,13-3.72,2.66.13,9.41,1,13,3.72C161,129.2,161.08,133.85,160.45,135.71Z"/><path class="cls-7" d="M131.58,140s-8.92-5.52-10.67-7.43c-4.37-3.53-7.72-7.45-8.53-9.32-7.94-17.06-6.56-22.5-6.56-22.5s15.05,16.31,23.8,20.51C132.3,119.16,131.58,140,131.58,140Z"/><path class="cls-7" d="M164.71,140.16s9-5.54,10.83-7.46c4.44-3.55,7.84-7.5,8.68-9.38,8.12-17.23,6.76-22.74,6.76-22.74s-15.32,16.42-24.2,20.63C164.09,119.05,164.71,140.16,164.71,140.16Z"/></g><g id="Haare"><path id="Haare-2" data-name="Haare" class="cls-7" d="M103.12,29.52c-.48-5.69,1.34-13.77,5.82-25.32a3.73,3.73,0,0,1,6.44-.92c5.18,6.5,12,5.2,23.3.61,18.85-7.67,32.68-3,40.65,5.35,34.18,17.45,13.3,78.59,13.3,78.59S191.91,56,180.17,41.37c-6.43,1.48-24.53,4-31.77,4s-26.19-2.38-32.77-4c-8.69,9.29-11.46,46.46-11.46,46.46S90.71,53.94,103.12,29.52Z"/><g id="graue_Haare" data-name="graue Haare"><path class="cls-8" d="M103.19,37.92A37.2,37.2,0,0,0,100.72,46a38.06,38.06,0,0,0,.16,14.52"/><path class="cls-8" d="M193.33,38.49a37.73,37.73,0,0,1,2.48,8.12,38.23,38.23,0,0,1-.17,14.52"/><path class="cls-9" d="M146.65,6.22a25.46,25.46,0,0,1,13.1-2.48,27.23,27.23,0,0,1,11.71,3.59"/><path class="cls-8" d="M191.06,55.88a30.4,30.4,0,0,1,2,6.6,31.42,31.42,0,0,1-.14,11.81"/><path class="cls-8" d="M104.32,57.1a37.47,37.47,0,0,0-1,5.69,42.23,42.23,0,0,0,.34,10.27"/><path class="cls-10" d="M188,24.48a31.41,31.41,0,0,0-10-7.86c-6.81-3.41-13.21-3.57-18.45-3.65a77.87,77.87,0,0,0-20.6,2.81c-9.45,2.33-11.34,4.19-15.38,3.36-6-1.23-9.81-7-12.15-12.07"/><path class="cls-9" d="M188.71,30a30.72,30.72,0,0,0-9.82-6.48c-6.7-2.82-13-2.95-18.14-3a90.85,90.85,0,0,0-20.26,2.31c-9.28,1.93-11.14,3.47-15.12,2.78-5.92-1-9.65-5.79-11.94-9.95"/></g></g></g><g id="Unterkörper"><g id="Schuhe"><g id="rechter_Schuh" data-name="rechter Schuh"><path d="M165.11,593.34c-.29.76-.54,1.53-.77,2.29a5.37,5.37,0,0,1,1.78.33,21,21,0,0,0,2.48.78,32.53,32.53,0,0,0,3.4.55c1.49.14,3,.22,4.51.21,3.19,0,7.34-.32,9.7-2.82.31-.34,1.51-1.94,1.22-2.63l-.14-.09a7.07,7.07,0,0,1-1.56-5.21,5.08,5.08,0,0,1,2.21-3.56,5.38,5.38,0,0,1,4.13-1v-6.64h-27Z"/><polygon class="cls-11" points="163.05 611.69 163.05 610.87 162.45 610.87 162.45 615.38 228.74 615.38 228.74 610.87 228.74 610.87 228.74 611.69 163.05 611.69"/><path class="cls-12" d="M198.21,585.41c3.64,2.6,18.08,7.05,18.08,7.05a25.76,25.76,0,0,1,2.62.93c.6.29,3,1.8,2.25,5.5-.85,4.09-11,2.81-13.22,2.45a43.94,43.94,0,0,1-17.77-7.23c-.94-.64-1.84-1.33-2.74-2.06.29.69-.91,2.29-1.22,2.63-2.36,2.5-6.51,2.79-9.7,2.82-1.5,0-3-.07-4.51-.21a32.53,32.53,0,0,1-3.4-.55,21,21,0,0,1-2.48-.78,5.37,5.37,0,0,0-1.78-.33c-.69,0-1.29.28-1.29,1.19v14.87h65.68v-7.21c.05-3.53-2.35-9-12.35-12,0,0-14.43-4.45-18.07-7.06-1.88-1.33-4-2.84-6.24-3.18a5.29,5.29,0,0,0-.8-.08C193.72,582.25,196.14,583.92,198.21,585.41Z"/><path class="cls-11" d="M207.94,601.34c2.18.36,12.37,1.64,13.22-2.45.76-3.7-1.65-5.21-2.25-5.5a25.76,25.76,0,0,0-2.62-.93s-14.44-4.45-18.08-7.05c-2.07-1.49-4.49-3.16-6.94-3.27a5.25,5.25,0,0,0-3.33,1.05,5.08,5.08,0,0,0-2.21,3.56,7.07,7.07,0,0,0,1.56,5.21l.14.09c.9.73,1.8,1.42,2.74,2.06A43.94,43.94,0,0,0,207.94,601.34Z"/></g><g id="linker_Schuh" data-name="linker Schuh"><path d="M106,582.22a6.08,6.08,0,0,1,1-.07,5.27,5.27,0,0,1,3.4,1,5.18,5.18,0,0,1,2.2,3.54A7.16,7.16,0,0,1,111,592c-.46.61.86,2.37,1.2,2.72,2.34,2.5,6.5,2.79,9.69,2.82,1.5,0,3-.07,4.51-.21a33.21,33.21,0,0,0,3.39-.55,20.43,20.43,0,0,0,2.48-.78,6.73,6.73,0,0,1,1.48-.33c-.22-.76-.48-1.54-.77-2.3V578.91H106Z"/><polygon class="cls-11" points="69.65 611.69 69.65 610.87 69.33 610.87 69.33 615.38 135.62 615.38 135.62 610.87 135.32 610.87 135.32 611.69 69.65 611.69"/><path class="cls-12" d="M129.77,596.74a33.21,33.21,0,0,1-3.39.55c-1.51.14-3,.22-4.51.21-3.19,0-7.35-.32-9.69-2.82-.34-.35-1.66-2.11-1.2-2.72a7.16,7.16,0,0,0,1.56-5.25,5.18,5.18,0,0,0-2.2-3.54,5.27,5.27,0,0,0-3.4-1,5.18,5.18,0,0,1,3.1,1c3.1,2.21,2.79,6,.64,8.77-.94.76-1.9,1.47-2.88,2.15A44,44,0,0,1,90,601.34c-2.18.36-12.38,1.64-13.22-2.45a4.75,4.75,0,0,1,1.74-5.19c-7.13,3.11-9,7.69-8.91,10.78v7.21h65.67V596.82c0-1-.76-1.25-1.59-1.19a6.73,6.73,0,0,0-1.48.33A20.43,20.43,0,0,1,129.77,596.74Z"/><path class="cls-11" d="M76.82,598.89c.84,4.09,11,2.81,13.22,2.45a44,44,0,0,0,17.76-7.23c1-.68,1.94-1.39,2.88-2.15,2.15-2.81,2.46-6.56-.64-8.77a5.18,5.18,0,0,0-3.1-1,6.08,6.08,0,0,0-1,.07c-2.2.34-4.35,1.85-6.23,3.19-3.64,2.6-18.07,7.05-18.07,7.05a26.86,26.86,0,0,0-2.63.93,3,3,0,0,0-.5.31A4.75,4.75,0,0,0,76.82,598.89Z"/></g></g><path id="Hose" class="cls-13" d="M148.41,358.68v.16L89,358.69a37.36,37.36,0,0,0,2.71,13.73l5.07,214.12h37.66l4.62-195h18.75l4.69,195H200l5.11-214.08a36.87,36.87,0,0,0,2.72-13.78Z"/></g><g id="Oberkörper"><g id="Hemd"><path class="cls-14" d="M235.37,186.61c-7.49-16.31-28.5-20.35-58.62-30.71l-3.25-1.14a1,1,0,0,1,0,.17c-2,11.22-7.61,25.73-25.07,27.43-17.45-1.7-23.08-16.21-25.06-27.43,0-.05,0-.12,0-.17l-3.25,1.14c-30.11,10.36-51.12,14.4-58.61,30.71C52.06,207.4,79,229,79,229s2.43,130.64,6.5,130.64H211.31c4.06,0,6.5-130.64,6.5-130.64S244.74,207.4,235.37,186.61Z"/><polygon class="cls-15" points="158.23 178.78 154.31 186.28 142.38 186.28 138.57 178.78 148.4 170.74 158.23 178.78"/><path class="cls-16" d="M111.85,159l15.87-7,4.92,4.55L148,170.76l-12.2,12.85Z"/><path class="cls-17" d="M127.67,152.27l4.8,4.44,15.22,14.06-11.85,12.48L112.28,159l15.39-6.77m.1-.59-16.35,7.2L135.84,184l12.56-13.23-15.59-14.4-5-4.66Z"/><path class="cls-16" d="M148.76,170.76,169.08,152,185,159l-24,24.65Z"/><path class="cls-17" d="M169.13,152.27,184.52,159,161,183.25l-11.85-12.48,15.22-14.06,4.8-4.44m-.1-.59-5,4.66-15.59,14.4L161,184l24.42-25.09L169,151.68Z"/><polygon class="cls-18" points="154.31 188.08 159.16 344.4 148.4 356.3 137.64 344.4 142.38 188.08 154.31 188.08"/></g><g id="rechter_Arm_Hand" data-name="rechter Arm+Hand"><path class="cls-1" d="M208.08,322,234.22,301l15.95,19.92L224,341.87c-5.17,4.14-7.83,2.91-12.23-2.59S202.91,326.09,208.08,322Z"/><path class="cls-1" d="M208.46,312.2A30.66,30.66,0,0,1,229.34,306a4.44,4.44,0,0,1,3.17,5.11,3.83,3.83,0,0,1-4.85,2.9,10.71,10.71,0,0,0-1.4.07,26.37,26.37,0,0,0-3.36.55,23,23,0,0,0-9.12,4.26,4.26,4.26,0,0,1-5.32-6.64Z"/><path class="cls-5" d="M231.8,296.64l27.4-32.48L217.7,228.9l14.82-47.07L294,254.91a15,15,0,0,1-.35,19.51l-42.27,46.93Z"/><path d="M232.62,182.33l61.18,72.74a14.75,14.75,0,0,1-.33,19.18L251.39,321l-19.26-24.31,27.1-32.14.33-.38-.38-.32-41.19-35,14.63-46.49m-.21-1-15,47.67,41.44,35.2-27.37,32.45,19.89,25.1,42.47-47.15a15.32,15.32,0,0,0,.35-19.84l-61.78-73.43Z"/><polygon class="cls-5" points="231.82 181.83 232.94 183.19 218.94 228.53 216.52 228.93 231.82 181.83"/><path class="cls-5" d="M231.92,182.34l.74.9-13.91,45.07-1.87.31,15-46.28m-.19-1-15.58,47.93,3-.5,14.09-45.62-1.49-1.81Z"/></g><g id="linker_Arm_Hand" data-name="linker Arm+Hand"><path class="cls-1" d="M89.16,324.63,62.62,304.2,47.05,324.42l26.54,20.43c5.24,4,7.88,2.76,12.17-2.82S94.4,328.67,89.16,324.63Z"/><path class="cls-1" d="M88.59,314.89a30.64,30.64,0,0,0-21-5.85,4.44,4.44,0,0,0-3.07,5.17,3.83,3.83,0,0,0,4.9,2.81,11.33,11.33,0,0,1,1.4,0,24.53,24.53,0,0,1,3.37.49,23,23,0,0,1,9.21,4.08,4.26,4.26,0,0,0,5.19-6.74Z"/><path class="cls-5" d="M4.19,276.28a15,15,0,0,1-.69-19.5L63.65,182.6l15.67,46.8-40.87,36,38.34,43.83L59.51,338Z"/><path d="M63.56,183.11,79,229.32,38.47,265.05l-.37.32.33.38,38.05,43.5-17,28.3L4.38,276.11a14.74,14.74,0,0,1-.69-19.17l59.87-73.83m.19-1L3.3,256.62A15.32,15.32,0,0,0,4,276.45l55.54,61.93L77.1,309.2,38.8,265.42l40.81-35.94L63.75,182.09Z"/><polygon class="cls-5" points="78.02 229.46 62.74 184.59 64.64 182.23 80.35 230.09 78.02 229.46"/><path class="cls-5" d="M64.55,182.74l15.42,47-1.75-.48L63,184.64l1.53-1.9m.19-1-2.29,2.83,15.38,45.12,2.9.8-16-48.75Z"/></g><g id="Uhr"><polygon class="cls-19" points="253.21 318.68 234.64 297.92 228.74 304.63 246.6 324.59 253.21 318.68"/><path class="cls-20" d="M238.76,308.88a7.74,7.74,0,1,0,10.93.61A7.76,7.76,0,0,0,238.76,308.88Z"/><circle cx="243.92" cy="314.65" r="0.5"/><line class="cls-21" x1="244.43" y1="314.14" x2="247.74" y2="310.83"/><line class="cls-21" x1="244.43" y1="315.15" x2="246.25" y2="316.54"/></g></g></g></g></g></svg>