<svg xmlns="http://www.w3.org/2000/svg" viewBox="0 0 181.1 599.03"><defs><style>.cls-1{isolation:isolate;}.cls-2{fill:#f8cfba;}.cls-3{fill:#f3baa1;}.cls-4{fill:#f0b6ad;opacity:0.45;mix-blend-mode:multiply;}.cls-5{fill:#f4a891;}.cls-6{fill:#3d2417;}.cls-7{fill:#fff;}.cls-8{fill:#eb5e46;}.cls-9{fill:#f0f0f0;}.cls-10{fill:#c4c4c3;}.cls-11{fill:#f5a93f;}.cls-12{fill:#f7b967;}.cls-13,.cls-14,.cls-15,.cls-16,.cls-17,.cls-20{fill:none;stroke-linecap:round;stroke-miterlimit:10;}.cls-13,.cls-14,.cls-15,.cls-16{stroke:#e0bf9d;}.cls-13,.cls-17{stroke-width:1.5px;}.cls-14{stroke-width:0.75px;}.cls-16{stroke-width:0.5px;}.cls-17,.cls-20{stroke:#898684;}.cls-18{fill:#eae4df;opacity:0.44;}.cls-19{fill:#898684;}.cls-21{fill:#f8d0ba;}.cls-22{fill:#161617;}.cls-23{fill:#1a1718;}.cls-24{fill:#c0b2d8;}.cls-25{fill:#e8e7e7;}.cls-26{fill:#d2d2d2;}</style></defs><title>silvia</title><g class="cls-1"><g id="Ebene_2" data-name="Ebene 2"><g id="HR_Team"><g id="Silvia"><g id="Gesicht"><g id="Hals"><polygon class="cls-2" points="91.61 188.4 91.61 166.7 57.58 166.7 57.58 188.4 49.08 189.06 57.58 243.92 91.61 243.92 100.12 189.06 91.61 188.4"/><polygon class="cls-3" points="57.58 166.84 57.58 178.98 91.61 188.4 91.61 166.84 57.58 166.84"/></g><g id="Gesicht-2" data-name="Gesicht"><path id="komplett" class="cls-2" d="M112.85,109.32V91.63c0-18.8-21.75-42.54-39-42.54s-39,23.74-39,42.54v17.69a8.59,8.59,0,0,0-8.66,8.51v8.85a8.59,8.59,0,0,0,8.66,8.5c0,18.8,21.76,43.22,39,43.22s39-24.42,39-43.22a8.59,8.59,0,0,0,8.67-8.5v-8.85A8.59,8.59,0,0,0,112.85,109.32Z"/><path id="rechte_Hälfte" data-name="rechte Hälfte" class="cls-3" d="M73.88,146.92V178.4c17.22,0,39-24.42,39-43.22a8.59,8.59,0,0,0,8.67-8.5v-8.85a8.59,8.59,0,0,0-8.67-8.51V91.63c0-18.8-21.75-42.54-39-42.54V118a115.61,115.61,0,0,0-8.66,27.22Z"/><g id="Bäckchen"><path class="cls-4" d="M44.33,137.29a16.62,16.62,0,0,1,15.6-.11"/><path class="cls-4" d="M87.71,137.29a16.6,16.6,0,0,1,15.59-.11"/></g><g id="Augen"><path class="cls-5" d="M59.32,120.59a6.72,6.72,0,1,1-7-6.48A6.72,6.72,0,0,1,59.32,120.59Z"/><path class="cls-6" d="M59.32,118.89a6.72,6.72,0,1,1-7-6.48A6.72,6.72,0,0,1,59.32,118.89Z"/><path class="cls-7" d="M56.57,117a1.68,1.68,0,1,1-1.74-1.62A1.68,1.68,0,0,1,56.57,117Z"/><path class="cls-6" d="M60.78,113.76a9.78,9.78,0,0,0-7.9-5.43c-2.14-.24-6.15.08-9.6,4.45a3,3,0,0,1-.51,0,4.68,4.68,0,0,1-1.44-.38,6.6,6.6,0,0,1-1.93-1.31.23.23,0,0,0-.25,0,.21.21,0,0,0-.09.28,7,7,0,0,0,.38.72,6.88,6.88,0,0,0,1.15,1.44,6.6,6.6,0,0,0,1.58,1.14,4.76,4.76,0,0,0,.64.27c.16.06.33.09.3.09a1.13,1.13,0,0,0,1.09-.59c2.26-3.16,5.28-4.71,8.5-4.36a8.17,8.17,0,0,1,6.52,4.41.85.85,0,1,0,1.56-.67Z"/><path class="cls-5" d="M101.86,120.59a6.72,6.72,0,1,1-7-6.48A6.72,6.72,0,0,1,101.86,120.59Z"/><path class="cls-6" d="M101.86,118.89a6.72,6.72,0,1,1-7-6.48A6.72,6.72,0,0,1,101.86,118.89Z"/><path class="cls-7" d="M99.1,117a1.68,1.68,0,1,1-1.73-1.62A1.67,1.67,0,0,1,99.1,117Z"/><path class="cls-6" d="M87,113.76a9.8,9.8,0,0,1,7.91-5.43c2.13-.24,6.15.08,9.59,4.45a2.93,2.93,0,0,0,.51,0,4.61,4.61,0,0,0,1.44-.38,6.56,6.56,0,0,0,1.94-1.31.21.21,0,0,1,.34.23s-.14.3-.39.72a6.82,6.82,0,0,1-2.73,2.58,4.76,4.76,0,0,1-.64.27c-.16.06-.32.09-.3.09a1.12,1.12,0,0,1-1.08-.59c-2.26-3.16-5.28-4.71-8.51-4.36a8.19,8.19,0,0,0-6.52,4.41.84.84,0,0,1-1.11.45A.86.86,0,0,1,87,113.76Z"/></g><g id="Mund"><path class="cls-8" d="M87.43,153.21c0,6.68-6.1,12.1-13.61,12.1s-13.62-5.42-13.62-12.1Z"/><path class="cls-7" d="M62.32,153.21H85a0,0,0,0,1,0,0v3.54a1,1,0,0,1-1,1H63.32a1,1,0,0,1-1-1v-3.54A0,0,0,0,1,62.32,153.21Z"/></g><g id="Ohrringe"><path class="cls-9" d="M34.47,133.18a3.11,3.11,0,1,1-6.21,0,3,3,0,0,1,.14-.85l.22-.56a3.08,3.08,0,0,1,4.7-1,3.28,3.28,0,0,1,.8,1A3.1,3.1,0,0,1,34.47,133.18Z"/><path class="cls-10" d="M119.37,133.18a3.11,3.11,0,1,1-6.21,0,3,3,0,0,1,.14-.85,3.62,3.62,0,0,1,.22-.56,3.08,3.08,0,0,1,4.7-1,3.28,3.28,0,0,1,.8,1A3.23,3.23,0,0,1,119.37,133.18Z"/></g></g><g id="Haare_Brille" data-name="Haare/Brille"><path class="cls-11" d="M106,35.72a12.71,12.71,0,0,0-.28-2.64,11.93,11.93,0,0,0,.27-2.48,11.52,11.52,0,0,0-7.71-10.87A12.07,12.07,0,0,0,86.45,8.11a13,13,0,0,0-23.55-1,10.86,10.86,0,0,0-2.75-.36,11.05,11.05,0,0,0-11,11.05c0,.21,0,.41,0,.61a12.72,12.72,0,0,0-6.07,20.05,10.76,10.76,0,0,0-2.14,6.44,10.86,10.86,0,0,0,15.24,10,9.42,9.42,0,0,0,12.35,8.61,13,13,0,0,0,23.17-6.15,12.58,12.58,0,0,0,7.81-10.63A12.46,12.46,0,0,0,106,35.72Z"/><path class="cls-12" d="M73.88,32.2c-39.81,0-54,38.91-42,77.17a1.7,1.7,0,0,0,3.32-.39C36.7,87.26,45.67,69,73.88,78.26c28.21-9.27,37.18,9,38.73,30.72a1.7,1.7,0,0,0,3.31.39C127.84,71.11,113.68,32.2,73.88,32.2Z"/><g id="graue_Haare" data-name="graue Haare"><path class="cls-13" d="M51.62,39.61c-9.36,16.91-12.7,32.1-13.43,44.49,0,.63-.07,1.25-.09,1.88"/><path class="cls-14" d="M41.6,51.74a116.27,116.27,0,0,0-8.35,42.94c0,.6,0,1.19,0,1.78"/><path class="cls-13" d="M98.32,40.39c9.24,18.25,12.06,34.4,12.21,47.48v2"/><path class="cls-15" d="M92.67,37.92a89,89,0,0,1,7.63,23.7A88.61,88.61,0,0,1,101.58,77"/><path class="cls-16" d="M87.1,35.69a59.32,59.32,0,0,1,5.6,18.6c0,.26.07.53.09.79"/><path class="cls-14" d="M77.64,23.88c4.26-.39,11.47-.27,17.79,4.26a22.11,22.11,0,0,1,2.36,2"/><path class="cls-14" d="M45.76,34a6.67,6.67,0,0,1-1.08-7.15,7.07,7.07,0,0,1,5.4-3.78"/><path class="cls-14" d="M67,7.55A9.33,9.33,0,0,1,74.37,3.1a8.84,8.84,0,0,1,8,4.72"/><path class="cls-13" d="M48.59,35.48a45.21,45.21,0,0,1,52.22.68"/><path class="cls-14" d="M86,10.89a8.39,8.39,0,0,1,9.07,8.46"/></g><g id="Brille"><line class="cls-17" x1="108.81" y1="64.2" x2="119.61" y2="86.24"/><line class="cls-17" x1="38.96" y1="64.81" x2="28.16" y2="86.85"/><rect class="cls-18" x="38.78" y="60.39" width="30.32" height="7.69" rx="1.07"/><path class="cls-19" d="M67.65,60.94a.83.83,0,0,1,.83.83v4.86a.84.84,0,0,1-.83.84H40.25a.85.85,0,0,1-.84-.84V61.77a.84.84,0,0,1,.84-.83h27.4m0-1H40.25a1.83,1.83,0,0,0-1.84,1.83v4.86a1.84,1.84,0,0,0,1.84,1.84h27.4a1.83,1.83,0,0,0,1.83-1.84V61.77a1.83,1.83,0,0,0-1.83-1.83Z"/><rect class="cls-18" x="78.63" y="60.39" width="30.32" height="7.69" rx="1.07"/><path class="cls-19" d="M107.49,60.94a.85.85,0,0,1,.85.85v4.83a.85.85,0,0,1-.85.85H80.12a.85.85,0,0,1-.85-.85V61.79a.85.85,0,0,1,.85-.85h27.37m0-1H80.12a1.85,1.85,0,0,0-1.85,1.85v4.83a1.85,1.85,0,0,0,1.85,1.85h27.37a1.85,1.85,0,0,0,1.85-1.85V61.79a1.85,1.85,0,0,0-1.85-1.85Z"/><line class="cls-20" x1="69.05" y1="64.09" x2="78.72" y2="64.09"/></g></g></g><g id="Unterkörper"><g id="Beine_Schuhe" data-name="Beine/Schuhe"><path class="cls-21" d="M115.14,459.06V566.44l17.12,8.91h0c7.58,7.49-5.65,7.93-18.12,4.35a100.41,100.41,0,0,1-21.24-9.46c-1.83-1.08-2.92-1.78-2.92-1.78V459.11l25.13.1S115.13,459.11,115.14,459.06Z"/><path class="cls-22" d="M148.36,585.62c-2.14-2.33-6.35-5-9.94-7-.48-.28-.95-.55-1.42-.8-2.66-1.47-4.7-2.45-4.74-2.47h0c7.58,7.49-5.65,7.93-18.12,4.35a100.41,100.41,0,0,1-21.24-9.46c-1.83-1.08-2.92-1.78-2.92-1.78s-1.1,7.06.07,12.69v0a6.36,6.36,0,0,0,.25.85c.06.24.13.5.22.81,1,3.48,3,11.39,2.47,13.79h5.94a22.86,22.86,0,0,1,1.35-8.14c.88.23,1.68.41,2.26.58h0c2.77.77,12.05,4.17,27.46,7.65,1.85.42,3.78.83,5.81,1.26C154.76,601.85,152.53,590.11,148.36,585.62Z"/><path class="cls-21" d="M61.25,568.75s-1.1.7-2.89,1.74A99.6,99.6,0,0,1,37.08,580c-12.41,3.6-25.59,3.16-18.19-4.27l17.18-8.88V459.21H61.25Z"/><path class="cls-23" d="M61.26,568.73v0s-1.1.7-2.89,1.74A99.6,99.6,0,0,1,37.08,580c-12.41,3.6-25.59,3.16-18.19-4.27,0,0,.06-.05.08-.07s-2.4,1.16-5.43,2.86l0,0c-3.73,2.06-8.34,4.92-10.63,7.38-4.17,4.5-6.4,16.25,12.52,12.36a292.77,292.77,0,0,0,33.29-8.91c.6-.17,1.39-.35,2.29-.58a22.77,22.77,0,0,1,1.34,8.15h6c-.55-2.4,1.46-10.2,2.44-13.71.08-.34.18-.64.24-.89a5,5,0,0,0,.2-.66,1.6,1.6,0,0,0,0-.21C62.35,575.81,61.26,568.73,61.26,568.73Z"/></g><path id="Hose" class="cls-23" d="M85,351.22V338.47H67.27v12.84l-40.85.35-5.06,0v15.62a32,32,0,0,0,6.15,19.23l5.23,168.83H65.62L71.21,397.7h9.94l5.63,159.16h32.89L125,384.7a43.92,43.92,0,0,0,3.12-17.39V351.22Z"/></g><g id="Oberkörper"><path id="Bluse" class="cls-24" d="M33.57,280.17c-8.07-8.24-21.25-25-4.35-49.19,10.87-15.57-21.6-41,26.29-43.5l19.84,54.28,19.83-54.28c47.89,2.51,15.43,27.93,26.29,43.5,16.9,24.23,3.72,41-4.35,49.19,2.77,3.45,5,7.68,5.11,12.56.07,5-2.25,6.62-2,11.82s2.75,6.93,5.16,12.68c2.66,6.36,2.41,10.76,3,17.28a119.62,119.62,0,0,0,7,30H81l-5.67-20.41-5.68,20.41H15.27c5.34-13.13,7-23.32,7.46-30.39.32-4.84.11-8.46,1.59-14.5,1.93-7.92,4.25-9.73,4.45-16.16.17-5.58-1.49-6.71-.88-11.45A22.86,22.86,0,0,1,33.57,280.17Z"/><g id="Rechter_Arm" data-name="Rechter Arm"><path class="cls-21" d="M126.37,324c2.36,0,22.39,4.39,15.13,9.72-2.53,1.86-8.28-2.28-11.07-2.86-2-.42-5.16.16-6.44-1.84C122.85,327.17,124,323.92,126.37,324Z"/><path class="cls-21" d="M125.24,328.12c6.46-.5,14.68-9.21,15.79-8.73.48.21,8.85,14.39,8.34,15.94s-17.26,15.33-24.16,16c-5.82.53-13.66-4.82-14.48-11.77C110,333.64,119.42,328.53,125.24,328.12Z"/><path class="cls-24" d="M147.68,338.42c11.38-9.87,15.56-19.15,22-31.56a129.27,129.27,0,0,0,9.94-23.72c3.45-12.05.29-21.9-2.85-29.13-6.12-14.14-34.23-57.92-68.64-64.94l.79,35c12.41,6.27,39.33,29.64,44,40.34,2.53,5.84,2.54,8.69,1.7,11.63a105.19,105.19,0,0,1-8,18.91c-5.68,11-7.81,18-14.25,26.21Z"/><g id="Armband"><path class="cls-9" d="M135.94,331.88a2.76,2.76,0,1,1,3.46-1.81A2.76,2.76,0,0,1,135.94,331.88Z"/><path class="cls-9" d="M138.48,331.45a2.77,2.77,0,1,1-.67,2.16,2.73,2.73,0,0,1,.67-2.16Z"/><path class="cls-9" d="M143.13,334.49a2.76,2.76,0,1,1-.67,2.16,2.82,2.82,0,0,1,.1-1.15A2.71,2.71,0,0,1,143.13,334.49Z"/><path class="cls-9" d="M135.52,321.58a2.76,2.76,0,1,1-3.45,1.82A2.76,2.76,0,0,1,135.52,321.58Z"/></g></g><g id="Kragen_Kette" data-name="Kragen/Kette"><polygon class="cls-7" points="36.03 200.89 54.68 207.94 47.36 218.15 75.35 241.76 55.48 187.04 36.03 200.89"/><polygon class="cls-7" points="114.66 200.89 95.19 187.28 75.35 241.76 103.33 218.15 96.01 207.94 114.66 200.89"/><g id="Kette"><path class="cls-25" d="M69.79,207.94a4.73,4.73,0,1,1,4.73-4.72A4.72,4.72,0,0,1,69.79,207.94Z"/><path class="cls-26" d="M74.94,201.28a4.73,4.73,0,1,1,0,3.87,4.67,4.67,0,0,1,0-3.87Z"/><path class="cls-9" d="M61.64,193.77a4.73,4.73,0,1,1-4.72,4.72A4.72,4.72,0,0,1,61.64,193.77Z"/><path class="cls-9" d="M64.09,189.31a4.73,4.73,0,1,1-9.45,0,4.65,4.65,0,0,1,.2-1.3c.29-.76.29-.76.33-.85a4.7,4.7,0,0,1,4.19-2.57,4.61,4.61,0,0,1,3,1.08,4.78,4.78,0,0,1,1.75,3.64Z"/><path class="cls-26" d="M87.41,193.76a4.73,4.73,0,1,1-4.72,4.72A4.73,4.73,0,0,1,87.41,193.76Z"/><path class="cls-10" d="M94.56,189.33a4.73,4.73,0,1,1-8.92-2.15,4.67,4.67,0,0,1,1.89-2,4.54,4.54,0,0,1,2.29-.62,4.71,4.71,0,0,1,4.35,2.83,1.39,1.39,0,0,0,.06.19,1.42,1.42,0,0,1,.07.22l0,.05A4.87,4.87,0,0,1,94.56,189.33Z"/></g></g><g id="linker_Arm" data-name="linker Arm"><path class="cls-2" d="M17,405.38V377.52s-10.35-7.94-12.91,0c-6.7,20.75,1.75,37.85,5.72,37.85S17,410.89,17,405.38Z"/><path class="cls-2" d="M21.83,401.92A33.94,33.94,0,0,0,17,384.13c-1.1-1.19-2.7-.91-3.55.63a4.51,4.51,0,0,0,.45,4.93,10.93,10.93,0,0,1,.49,1,26.79,26.79,0,0,1,1,2.61,28.09,28.09,0,0,1,1.42,8.62c0,1.94,1.13,3.51,2.53,3.51S21.83,403.86,21.83,401.92Z"/><path class="cls-24" d="M22,387.74l-20.65-.05s-.26-123,1.53-140.06c2.44-38.71,25.17-59.17,45-59.17,0,0-16.79,10.47-11.4,19.92-2.61,9.06.49,18.29-1.73,20.59-7,7.29-8.59,8.85-9.9,21.36C23.21,266.3,22,387.74,22,387.74Z"/></g></g></g></g></g></g></svg>